<?xml version="1.0" encoding="utf-8"?>
<!-- Generator: Adobe Illustrator 27.7.0, SVG Export Plug-In . SVG Version: 6.00 Build 0)  -->
<svg version="1.1" id="Layer_1" xmlns="http://www.w3.org/2000/svg" xmlns:xlink="http://www.w3.org/1999/xlink" x="0px" y="0px"
	 viewBox="0 0 500 500" style="enable-background:new 0 0 500 500;" xml:space="preserve">
<style type="text/css">
	.st0{fill:#00425A;stroke:#00425A;stroke-miterlimit:10;}
	.st1{fill:#BFDB38;}
	.st2{opacity:0.2;}
	.st3{fill:#00425A;}
	.st4{fill:#21100A;}
	.st5{opacity:0.3;}
	.st6{fill:#FFFFFF;}
	.st7{fill:#7F7F7F;}
	.st8{fill:#000072;}
	.st9{fill:#F4EBE4;}
	.st10{fill:#F8DEC3;}
	.st11{fill:none;stroke:#000072;stroke-width:34.4403;stroke-linecap:round;stroke-miterlimit:10;}
	.st12{fill:#FF8E06;}
	.st13{fill:#EF8B01;}
	.st14{opacity:0.35;}
	.st15{fill:#1F8A70;}
</style>
<g>
	<ellipse class="st0" cx="250" cy="250" rx="218.79" ry="230.74"/>
	<ellipse class="st1" cx="250" cy="250" rx="208.1" ry="231.59"/>
	<g>
		<g class="st2">
			<g>
				<g>
					<g>
						<ellipse class="st3" cx="250" cy="391.22" rx="144.05" ry="22.96"/>
					</g>
				</g>
			</g>
		</g>
		<g>
			<g>
				<g>
					<g>
						<path class="st4" d="M155.46,349.37c-7.72-1.91-33.34-26.99-41.76-21.51c-10.23,6.66,5.48,28.4,32.76,40.42
							c0.25,0.11,0.12,0.48-0.14,0.41c-7.27-1.83-23.89-6.32-26.15,3.81c-2.85,12.76,62.46,12.09,66.05,9.32"/>
					</g>
				</g>
			</g>
		</g>
		<g class="st5">
			<g>
				<g>
					<g>
						<path class="st6" d="M113.7,333.11c8.42-5.48,34.04,19.6,41.76,21.51l26.11,27.54c2.49-0.27,4.16-0.61,4.65-1l-30.76-32.45
							c-7.72-1.91-33.34-26.99-41.76-21.51c-3,1.95-3.76,5.2-2.67,9.11C111.52,335.04,112.4,333.95,113.7,333.11z"/>
					</g>
				</g>
			</g>
		</g>
		<g class="st5">
			<g>
				<g>
					<g>
						<path class="st6" d="M147.32,370.94c0.27,0.03,0.34-0.35,0.09-0.43c-5.64-1.67-10.87-3.76-15.58-6.12
							c-5.49,0.54-10.22,2.5-10.71,7.8c-0.12,1.28,0.41,2.35,1.45,3.23C126,368.15,140.6,370.14,147.32,370.94z"/>
					</g>
				</g>
			</g>
		</g>
		<g class="st5">
			<g>
				<g>
					<g>
						<path class="st3" d="M186.22,381.82c-3.59,2.78-68.9,3.44-66.05-9.32c0.92-4.14,4.24-5.83,8.34-6.27
							c-0.87,9.01,33.17,11.05,52.8,10.41L186.22,381.82z"/>
					</g>
				</g>
			</g>
		</g>
		<g>
			<g>
				<g>
					<g>
						<path class="st3" d="M165.93,385.72c-3.2,0-6.06-0.06-8.03-0.12c-10.3-0.34-28.7-1.64-36.23-6.42
							c-4.04-2.57-4.05-5.59-3.7-7.16c0.6-2.69,2.05-4.77,4.32-6.16c3-1.84,7-2.22,11.09-1.92c-14.2-8.81-24.3-20.21-25.03-29.15
							c-0.3-3.75,1.16-6.87,4.13-8.81c6.68-4.35,18.86,4.47,30.64,12.99c5.18,3.75,10.54,7.63,12.9,8.22
							c1.21,0.3,1.95,1.52,1.65,2.73c-0.3,1.21-1.52,1.95-2.73,1.65c-3.21-0.79-8.17-4.39-14.46-8.94
							c-8.02-5.81-21.44-15.52-25.52-12.87c-1.58,1.03-2.26,2.55-2.09,4.66c0.67,8.28,14.06,22.79,34.53,31.8
							c1.19,0.52,1.77,1.84,1.35,3.07c-0.42,1.23-1.69,1.91-2.95,1.6l-0.61-0.15c-5.11-1.29-15.73-3.97-20.51-1.03
							c-1.22,0.75-1.94,1.8-2.28,3.3c-0.06,0.29-0.2,0.89,1.02,1.87c3.92,3.15,16.13,5.45,32.66,6.14
							c14.56,0.61,26.95-0.23,28.92-1.07c0.98-0.66,2.31-0.45,3.04,0.5c0.76,0.99,0.58,2.4-0.41,3.17
							C185.39,385.31,174.49,385.72,165.93,385.72z M184.84,380.03C184.84,380.03,184.84,380.03,184.84,380.03
							C184.84,380.03,184.84,380.03,184.84,380.03z M185.01,379.92L185.01,379.92L185.01,379.92z"/>
					</g>
				</g>
			</g>
		</g>
		<g>
			<g>
				<g>
					<g>
						<path class="st7" d="M331.19,248.95c0,0,23.6,8.8,26.73,47.55c0.82,10.12-0.89,35.04-3.85,44.74
							c-3.29,10.8-8.93,24.64-23.44,31.2"/>
					</g>
				</g>
			</g>
		</g>
		<g>
			<g>
				<g>
					<g>
						<path class="st4" d="M331.19,248.95c0,0,23.6,8.8,26.73,47.55c0.82,10.12-0.89,35.04-3.85,44.74
							c-3.29,10.8-8.93,24.64-23.44,31.2"/>
					</g>
				</g>
			</g>
		</g>
		<g class="st5">
			<g>
				<g>
					<g>
						<path class="st6" d="M354.01,285.21c-7.57-18.51-13.07-23.11-22.59-28.67l-0.23-7.58c0,0,23.6,8.8,26.73,47.55
							C358.09,298.6,354.05,282.1,354.01,285.21z"/>
					</g>
				</g>
			</g>
		</g>
		<g>
			<g>
				<g>
					<g>
						<path class="st3" d="M330.64,374.7c-0.86,0-1.68-0.49-2.06-1.33c-0.51-1.14-0.01-2.47,1.13-2.99
							c13.62-6.15,17.73-12.58,20.92-23.02c4.22-13.84,5.91-28.47,5.03-43.48c-2.18-37.05-19.58-50.41-19.75-50.54
							c-1-0.74-1.21-2.16-0.47-3.16c0.74-1,2.15-1.22,3.15-0.48c0.79,0.58,19.27,14.56,21.58,53.91
							c0.91,15.55-0.84,30.72-5.22,45.07c-3.5,11.47-8.26,18.99-23.38,25.81C331.26,374.64,330.95,374.7,330.64,374.7z"/>
					</g>
				</g>
			</g>
		</g>
		<g>
			<g>
				<g>
					<g>
						<path class="st4" d="M351.13,342.8c0,9.86-4.51,18.82-12.42,26.42c-0.03,0.03-0.06,0.06-0.1,0.09
							c-16.38,15.69-47.22,25.66-82.8,26.17c-0.94,0.02-1.89,0.02-2.84,0.02c-36.78,0-68.84-11.49-85.65-28.49
							c-1.15-1.16-2.25-2.31-3.28-3.44c-6.11-6.71-9.96-13.07-9.96-21.54c0-20.25,3-39.24,8.39-56.26c1.96-6.2,4.25-12.15,6.81-17.8
							c17.58-38.65,48.64-63.46,83.69-63.46c33.37,0,62.85,22.99,80.58,58.06c0.17,0.33,0.34,0.67,0.5,1c1.34,2.69,2.6,5.5,3.8,8.42
							c8.35,20.34,13.17,45.56,13.27,70.06v0.11C351.13,342.36,351.13,342.58,351.13,342.8z"/>
					</g>
				</g>
			</g>
		</g>
		<g class="st5">
			<g>
				<g>
					<g>
						<path class="st8" d="M350.79,331.32c-0.01-0.22-0.03-0.44-0.05-0.66c0-0.01,0.01-0.02,0.01-0.03
							C350.76,330.86,350.78,331.09,350.79,331.32z"/>
					</g>
				</g>
			</g>
		</g>
		<g class="st5">
			<g>
				<g>
					<g>
						<path class="st8" d="M351.13,342.8c0,9.86-4.51,18.82-12.42,26.42c7.71-7.77,12.2-16.95,12.41-27.07
							C351.13,342.36,351.13,342.58,351.13,342.8z"/>
					</g>
				</g>
			</g>
		</g>
		<g>
			<g>
				<g>
					<g>
						<path class="st9" d="M351.13,342.04v0.11c-0.21,10.13-4.7,19.3-12.41,27.07c-0.03,0.03-0.06,0.06-0.1,0.09
							c-16.07,16.12-46.02,26.19-80.31,26.19c-0.83,0-1.66-0.01-2.49-0.02c-6.75-0.11-13.32-0.67-19.64-1.61
							c-39.74-5.99-63.62-51.1-48.53-91.43c0.06-0.16,0.12-0.32,0.18-0.47c5.07-13.45,13.59-23.9,24.01-29.46l6.28-3.35
							c9.91-5.29,24.92-5.97,35.19-1.64l15.55,6.55c5.63,2.37,11.49,3.28,17.27,2.75c5.35-0.5,10.57-2.35,15.45-5.25l13.59-8.06
							c2.69-1.32,5.35-2.29,7.99-2.92c3.69-0.88,7.41-0.07,10.4,2c0.17,0.33,0.34,0.67,0.5,1
							C344.74,285.09,351.02,314.04,351.13,342.04z"/>
					</g>
				</g>
			</g>
		</g>
		<g class="st5">
			<g>
				<g>
					<g>
						<path class="st3" d="M350.88,336.91v-0.11c-0.02-4.16-0.18-8.35-0.46-12.53c-1,8.38-5.3,16.03-12.19,22.66
							c-0.03,0.03-0.06,0.06-0.1,0.09c-16.38,15.69-47.22,25.66-82.8,26.17c-0.94,0.02-1.89,0.02-2.84,0.02
							c-36.78,0-68.84-11.49-85.65-28.49c-1.15-1.16-2.25-2.31-3.28-3.44c-4.73-5.19-8.1-10.19-9.38-16.11
							c-0.22,3.82-0.34,7.69-0.34,11.61c0,8.47,3.86,14.84,9.96,21.54c1.03,1.13,2.13,2.28,3.28,3.44
							c16.81,17,48.86,28.49,85.65,28.49c0.95,0,1.9-0.01,2.84-0.02c35.59-0.5,66.43-10.48,82.8-26.17c0.03-0.03,0.07-0.06,0.1-0.09
							c7.91-7.61,12.42-16.56,12.42-26.42C350.89,337.34,350.89,337.12,350.88,336.91z"/>
					</g>
				</g>
			</g>
		</g>
		<g>
			<g>
				<g>
					<g>
						<path class="st10" d="M255.81,395.48c35.59-0.5,66.43-10.48,82.8-26.17c-16.07,16.12-46.02,26.19-80.31,26.19
							C257.47,395.5,256.64,395.5,255.81,395.48z"/>
					</g>
				</g>
			</g>
		</g>
		<g>
			<g>
				<g>
					<g>
						<path class="st3" d="M252.97,397.76c-22.05,0-44.49-4.05-61.55-11.1c-22.74-9.4-36.42-24.17-39.56-42.7
							c-2.84-16.74-0.97-35.62,5.4-54.58c6.01-17.89,15.68-35.02,27.95-49.55c20.17-23.88,44.87-37.58,67.76-37.58
							c33.3,0,64.37,22.55,83.11,60.31c10.84,21.84,17.31,51.84,17.31,80.23C353.39,374.13,310.22,397.76,252.97,397.76z
							 M252.97,206.77c-21.56,0-45,13.11-64.31,35.98c-24.98,29.57-37.68,69.01-32.35,100.46c2.91,17.16,15.3,30.37,36.84,39.28
							c16.54,6.84,38.34,10.76,59.83,10.76c26.22,0,50.5-5.17,68.36-14.55c17.76-9.33,27.54-22.07,27.54-35.9
							c0-27.73-6.29-56.98-16.84-78.23C314.08,228.37,284.52,206.77,252.97,206.77z"/>
					</g>
				</g>
			</g>
		</g>
		<g>
			<g>
				<g>
					<g>
						<path class="st4" d="M303,117.81c0.55-0.37,19.64-21.95,23.49-26.62c5.72-6.95,14.14-2.63,10.45,16.4
							c0,0,8.78-9.41,12.24-3.33c5.15,9.03-8.43,9.93,2.52,53.64"/>
					</g>
				</g>
			</g>
		</g>
		<g class="st5">
			<g>
				<g>
					<g>
						<path class="st6" d="M347.41,112.19c-3.66-3.49-13.7,1.47-13.7,1.47c1.3-4.69,2.37-4.39,2.24-7.38
							c3.02-2.12,11.12-8.34,13.14-4.05C350.56,105.37,348.5,109.18,347.41,112.19z"/>
					</g>
				</g>
			</g>
		</g>
		<g class="st5">
			<g>
				<g>
					<g>
						<path class="st6" d="M337.8,98.63c-2.25-4.18-6.46-3.93-9.77,0.09c-2.74,3.32-13.2,15.22-19.2,21.93l-5.84-4.81
							c0.55-0.37,19.65-21.95,23.49-26.62C331.42,83.23,338.37,85.63,337.8,98.63z"/>
					</g>
				</g>
			</g>
		</g>
		<g>
			<g>
				<g>
					<g>
						<path class="st7" d="M351.7,157.9l-0.7-0.58c-0.63-3.25-1.1-6.2-1.43-8.89C350.14,151.35,350.85,154.49,351.7,157.9z"/>
					</g>
				</g>
			</g>
		</g>
		<g>
			<g>
				<g>
					<g>
						<path class="st7" d="M337.8,100.6c0.67,1.23,1.16,2.86,1.41,4.88c-1.36,1.12-2.27,2.11-2.27,2.11
							C337.44,104.99,337.71,102.66,337.8,100.6z"/>
					</g>
				</g>
			</g>
		</g>
		<g>
			<g>
				<g>
					<g>
						<path class="st3" d="M351.7,160.16c-1.01,0-1.93-0.68-2.19-1.71c-7.1-28.32-4.07-39.18-2.25-45.67
							c0.97-3.48,1.37-4.92-0.04-7.4c-0.47-0.82-0.9-0.87-1.11-0.89c-1.95-0.23-5.64,2.64-7.52,4.65l-5.35,5.71l1.49-7.68
							c1.92-9.88,0.31-15.55-1.99-16.64c-1.23-0.58-2.95,0.23-4.5,2.11c-2.01,2.44-22.83,26.29-23.98,27.06
							c-1.04,0.69-2.44,0.41-3.13-0.62c-0.64-0.96-0.45-2.24,0.41-2.98c1.49-1.47,19.48-21.81,23.21-26.33
							c2.93-3.55,6.72-4.82,9.91-3.32c4.05,1.91,5.92,7.59,5.32,15.65c2.01-1.31,4.39-2.35,6.66-2.09c1.33,0.16,3.19,0.83,4.51,3.14
							c2.35,4.12,1.52,7.09,0.47,10.85c-1.69,6.06-4.52,16.19,2.29,43.36c0.3,1.21-0.43,2.44-1.64,2.74
							C352.07,160.14,351.88,160.16,351.7,160.16z M301.74,115.94c-0.04,0.02-0.1,0.06-0.18,0.14
							C301.61,116.02,301.68,115.98,301.74,115.94z"/>
					</g>
				</g>
			</g>
		</g>
		<g class="st5">
			<g>
				<g>
					<g>
						<path class="st3" d="M337.86,271.99c-18.09,7.51-42.94,10.93-60.42,10.93h-34.73c-9.48,0-49.37,0-73.43-14.95
							c17.58-38.65,48.64-63.46,83.69-63.46c33.37,0,62.85,22.99,80.58,58.06c0.17,0.33,0.34,0.67,0.5,1
							C335.4,266.26,336.66,269.07,337.86,271.99z"/>
					</g>
				</g>
			</g>
		</g>
		<g>
			<g>
				<g>
					<g>
						<path class="st4" d="M160.17,157.9c10.95-43.71-0.76-44.61,4.39-53.64c3.46-6.08,12.24,3.33,12.24,3.33
							c-3.69-19.03,4.41-23.07,10.45-16.4c10.59,11.69,26.62,20.64,27.17,21.01c0,0,33.21-5.82,37.34-5.91
							c3.25-0.07,78.49-9.3,99.25,46.07l1.48,4.71c7.5,24.16,11.41,43.76,11.08,56.06c0.03,0.57,0.04,1.15,0.04,1.73
							c0,5.61-1.23,11.64-4.2,18.02c-9.59,19.13-54.72,27.46-81.98,27.46h-34.73c-13.63,0-90.04,0-92.03-44.38
							c-0.55-12.26,3.25-34.05,8.83-55.55L160.17,157.9z"/>
					</g>
				</g>
			</g>
		</g>
		<g class="st5">
			<g>
				<g>
					<g>
						<path class="st6" d="M363.62,214.15c0,1.29-0.07,2.61-0.21,3.94c-0.27-12.23-4.09-30.49-10.96-52.61l-1.47-4.66
							c-9.24-47.21-76.91-47.38-98.1-45.53c-4.07,0.36-36.91,5.84-36.91,5.84c-0.54-0.36-16.39-9.21-26.86-20.76
							c-5.97-6.6-11.93-4.62-8.29,14.19c0,0-12.52-8-14.14-1.28c-2.51,10.42-7.28-0.7-2.13-9.73c3.46-6.08,12.24,3.32,12.24,3.32
							c-3.69-19.02,4.4-23.07,10.44-16.39c10.59,11.69,26.62,20.64,27.18,21.01c0,0,33.2-5.83,37.34-5.91
							c3.25-0.07,78.48-9.3,99.24,46.06l1.48,4.71c7.5,24.16,11.41,43.76,11.08,56.06C363.61,212.99,363.62,213.57,363.62,214.15z"
							/>
					</g>
				</g>
			</g>
		</g>
		<g class="st5">
			<g>
				<g>
					<g>
						<path class="st8" d="M270.49,196.65c-0.06,0.56-0.14,1.15-0.22,1.74c-2.9,20.44-19.39,34.12-36.61,36.16
							c-12.79,1.51-38.36-3.57-46.1-31.07c-2.79-9.9-2.95-20.11-0.17-25.58c4.85-9.54,19.2-12.4,25.56-13.5
							c0.66-0.11,1.37-0.22,2.13-0.3c13.1-1.52,38.47,1.35,47.14,8.99C262.21,173.09,272.53,177.81,270.49,196.65z"/>
					</g>
				</g>
			</g>
		</g>
		<g class="st5">
			<g>
				<g>
					<g>
						<path class="st3" d="M369.75,208.3c-1.04,4.78-8.4,18.32-28.28,20.21c-25.2,2.39-42.67-31.32-39.55-46.02
							c3.01-14.14,22.62-16.66,27.7-17.51c15.62-2.61,38.9,1.02,40.39,7.3C372.25,181.69,371.71,199.27,369.75,208.3z"/>
					</g>
				</g>
			</g>
		</g>
		<g>
			<g>
				<g>
					<g>
						<path class="st11" d="M266.73,237.65"/>
					</g>
				</g>
			</g>
		</g>
		<g>
			<g>
				<g>
					<g>
						<path class="st9" d="M359.28,183.25c7.6,32.7-13.39,65.34-46.33,71.81c-10.9,2.14-23.27,3.29-37.17,3.29
							c-72.28,0-93.66-40.75-94.59-42.81c-0.02-0.05-0.03-0.07-0.03-0.07c-3.62-7.15-5.64-15.21-5.64-23.73
							c0-29.56,32.17-55.03,62.25-53.53c11.81,0.59,24.22,6.17,34.07,13.35c9.45,6.89,22.55,6.18,30.89-2.01
							c3.84-3.77,7.95-6.61,11.92-7.86c11.26-3.54,25.15-1.01,31.78,6.75c14.84,17.36,12.02,31.26,12.76,34.4
							C359.21,182.98,359.25,183.12,359.28,183.25z"/>
					</g>
				</g>
			</g>
		</g>
		<g class="st5">
			<g>
				<g>
					<g>
						<path class="st3" d="M363.62,210.95c0-0.58-0.01-1.16-0.04-1.73c0.07-2.73-0.06-5.83-0.41-9.25
							c-0.58,3.89-1.78,7.95-3.75,12.18c-9.59,19.13-54.72,27.46-81.98,27.46h-34.73c-45.25,1.31-87.42-16.46-91.54-40.22
							c-0.47,4.67-0.65,8.82-0.5,12.23c1.99,44.38,78.4,44.38,92.03,44.38h34.73c27.26,0,72.39-8.33,81.98-27.46
							c1.46-3.13,2.49-6.18,3.17-9.14c0.09-0.26,0.18-0.52,0.26-0.78C363.38,215.99,363.62,213.42,363.62,210.95z"/>
					</g>
				</g>
			</g>
		</g>
		<g>
			<g>
				<g>
					<g>
						<path class="st12" d="M351.54,347.68c0,0,5.22-1.88,7.84,3.3c2.4,4.74-3.75,13.92-10.05,18.61
							c-4.14,3.08-4.39,7.41-7.08,12.48c-3.23,6.08-8.47,8.77-14.39,5.89c-5.56-2.71-5.02-9.38-4.75-13.83
							c0.29-4.88,1.16-8.03-0.2-13.21c-1.62-6.19-4.04-20.26,2.71-22.53c11.67-3.92,9.24,18.69,9.24,18.69"/>
					</g>
				</g>
			</g>
		</g>
		<g>
			<g>
				<g>
					<g>
						<path class="st13" d="M323.48,363.76c-0.11-0.89-0.29-1.82-0.56-2.84c-1.33-5.08-3.2-15.48-0.08-20.29
							c0.2,0.88,0.4,1.68,0.58,2.4c1.7,6.5,0.62,10.45,0.25,16.57C323.59,360.87,323.5,362.29,323.48,363.76z"/>
					</g>
				</g>
			</g>
		</g>
		<g class="st5">
			<g>
				<g>
					<g>
						<path class="st8" d="M349.34,369.59c-4.14,3.09-4.39,7.41-7.08,12.48c-3.22,6.08-8.46,8.77-14.4,5.89
							c-5.56-2.71-5.01-9.39-4.75-13.83c0.15-2.51,0.46-4.56,0.53-6.67c0.45,3.83,1.91,7.5,5.97,9.48
							c7.44,3.62,14.01,0.25,18.06-7.38C351.05,363.2,355.46,365.03,349.34,369.59z"/>
					</g>
				</g>
			</g>
		</g>
		<g>
			<g>
				<g>
					<g>
						<path class="st13" d="M323.65,367.46c-0.15-1.23-0.18-2.48-0.16-3.7C323.65,365.07,323.68,366.27,323.65,367.46z"/>
					</g>
				</g>
			</g>
		</g>
		<g>
			<g>
				<g>
					<g>
						<path class="st12" d="M345,360.02c4.52-5.56,10.56-21.79,2.05-24.25c-11.59-2.25-13.49,14.92-12.88,21.04"/>
					</g>
				</g>
			</g>
		</g>
		<g>
			<g>
				<g>
					<g>
						<path class="st13" d="M333.17,363.43l-0.07,0.04c0,0,0-0.02,0.01-0.06L333.17,363.43z"/>
					</g>
				</g>
			</g>
		</g>
		<g class="st5">
			<g>
				<g>
					<g>
						<path class="st6" d="M334.88,357.03l-0.72-0.21c-0.19-1.9-0.14-4.87,0.37-7.99c-0.67,1.56,0.31,4.48-0.04,6.17
							c-0.7-5.58-4.38-12.32-10.64-10.22c-1.13,0.38-2.01,1.1-2.67,2.05c0.23-4,1.41-7.41,4.45-8.43c6.26-2.11,8.47,3.43,9.17,9.01
							c0.02,0.23,0.05,0.45,0.07,0.67C335.32,352.37,334.94,356.51,334.88,357.03z"/>
					</g>
				</g>
			</g>
		</g>
		<g class="st5">
			<g>
				<g>
					<g>
						<path class="st6" d="M358.12,359.4c-0.05-0.74-0.21-1.42-0.52-2.04c-2.63-5.18-7.84-3.3-7.84-3.3l-0.98,0.55l-0.73,0.41
							c0.45-0.91,0.87-1.89,1.25-2.88c0.18-1.16,0.27-2.29,0.24-3.34l1.02-0.58l0.97-0.55c0,0,5.22-1.88,7.84,3.3
							C360.47,353.15,359.79,356.23,358.12,359.4z"/>
					</g>
				</g>
			</g>
		</g>
		<g class="st5">
			<g>
				<g>
					<g>
						<path class="st6" d="M350.57,348.23c-0.33,1.32-0.77,2.64-1.26,3.92c0.18-1.16,0.27-2.29,0.24-3.34
							c-0.09-3.22-1.29-5.79-4.28-6.65c-5.19-1.01-8.44,1.88-10.39,5.92c0.45,4.29,0.06,8.43,0.01,8.95l-0.72-0.21
							c-0.19-1.9-0.14-4.87,0.37-7.99c0.08-0.47,0.16-0.94,0.27-1.42c1.35-6.5,4.79-13.07,12.24-11.63
							C351.72,337.12,352.01,342.62,350.57,348.23z"/>
					</g>
				</g>
			</g>
		</g>
		<g>
			<g>
				<g>
					<g>
						<path class="st13" d="M334.88,357.03l-0.72-0.21c-0.19-1.9-0.14-4.87,0.37-7.99c0.11-0.25,0.22-0.5,0.34-0.75
							C335.32,352.37,334.94,356.51,334.88,357.03z"/>
					</g>
				</g>
			</g>
		</g>
		<g>
			<g>
				<g>
					<g>
						<path class="st13" d="M334.95,357.05l-0.07,0.04c0,0,0-0.02,0.01-0.06L334.95,357.05z"/>
					</g>
				</g>
			</g>
		</g>
		<g>
			<g>
				<g>
					<g>
						<path class="st13" d="M349.3,352.15c-0.13,0.81-0.3,1.64-0.52,2.47l-0.73,0.41C348.5,354.11,348.92,353.14,349.3,352.15z"/>
					</g>
				</g>
			</g>
		</g>
		<g>
			<g>
				<g>
					<g>
						<path class="st3" d="M350.77,345.56c0.36-0.12,0.54-0.17,0.8-0.23c0.24-0.05,0.47-0.11,0.71-0.14
							c0.47-0.08,0.95-0.12,1.44-0.13c0.97-0.01,1.99,0.13,2.97,0.47c0.99,0.32,1.9,0.9,2.69,1.57c0.37,0.35,0.75,0.7,1.04,1.1
							c0.15,0.19,0.31,0.39,0.45,0.59l0.37,0.61c0.12,0.22,0.24,0.38,0.36,0.65c0.11,0.26,0.25,0.52,0.32,0.78
							c0.18,0.53,0.3,1.06,0.36,1.58c0.13,1.04,0.06,2.01-0.08,2.92c-0.3,1.82-0.93,3.4-1.65,4.89c-1.48,2.95-3.39,5.5-5.56,7.83
							c-1.09,1.16-2.26,2.25-3.53,3.27l-0.48,0.38l-0.35,0.29c-0.23,0.17-0.43,0.37-0.63,0.57c-0.21,0.19-0.37,0.42-0.57,0.62
							c-0.17,0.23-0.35,0.44-0.5,0.69c-1.3,1.9-2.08,4.79-3.4,7.69c-1.3,2.87-3.12,5.98-6.18,8.11c-1.51,1.06-3.35,1.84-5.28,2.09
							c-1.93,0.26-3.88,0-5.6-0.59c-0.44-0.13-0.85-0.32-1.26-0.49c-0.21-0.09-0.41-0.17-0.62-0.28l-0.64-0.36
							c-0.21-0.12-0.42-0.24-0.63-0.37l-0.6-0.45c-0.41-0.29-0.76-0.64-1.11-1c-1.41-1.45-2.3-3.29-2.75-5.03
							c-0.89-3.53-0.56-6.77-0.37-9.72c0.11-1.54,0.29-3.04,0.41-4.45c0.12-1.41,0.17-2.72,0.07-4.01
							c-0.05-0.65-0.13-1.29-0.25-1.93c-0.06-0.32-0.12-0.64-0.2-0.97l-0.25-1.05c-0.37-1.5-0.68-3.01-0.92-4.53
							c-0.49-3.05-0.8-6.14-0.65-9.37c0.09-1.62,0.29-3.27,0.83-4.98c0.28-0.85,0.62-1.71,1.14-2.56c0.52-0.84,1.21-1.65,2.08-2.3
							c0.43-0.33,0.91-0.6,1.39-0.82l0.75-0.29l0.67-0.18l0.67-0.17l0.72-0.1c0.47-0.09,0.99-0.08,1.5-0.07
							c2.08,0.01,4.34,1.24,5.49,2.81c1.24,1.55,1.84,3.22,2.22,4.83c0.37,1.61,0.53,3.2,0.54,4.76c0.01,3.12-0.42,6.16-1.43,9.09
							c-0.07,0.21-0.3,0.33-0.52,0.25c-0.15-0.05-0.25-0.18-0.27-0.32l0-0.02c-0.48-2.97-0.86-5.87-1.41-8.64
							c-0.29-1.38-0.6-2.72-1.04-3.96c-0.41-1.24-0.95-2.37-1.6-3.11c-0.15-0.21-0.33-0.33-0.49-0.49c-0.18-0.1-0.33-0.26-0.51-0.31
							c-0.16-0.11-0.36-0.13-0.54-0.2c-0.09-0.03-0.2-0.02-0.3-0.04c-0.1-0.01-0.2-0.04-0.32-0.02c-0.23,0.01-0.45-0.01-0.71,0.06
							l-0.38,0.06l-0.4,0.12l-0.4,0.11c-0.09,0.04-0.19,0.09-0.28,0.12c-0.18,0.1-0.35,0.18-0.5,0.32c-0.31,0.25-0.59,0.58-0.84,1
							c-0.25,0.43-0.45,0.95-0.62,1.51c-0.33,1.13-0.48,2.44-0.52,3.77c-0.07,2.69,0.26,5.51,0.77,8.29
							c0.26,1.39,0.56,2.78,0.91,4.15l0.28,1.11c0.1,0.39,0.18,0.8,0.26,1.2c0.16,0.81,0.28,1.63,0.35,2.46
							c0.15,1.66,0.1,3.31-0.02,4.86c-0.12,1.54-0.27,2.99-0.36,4.39c-0.19,2.93-0.32,5.71,0.3,7.94c0.29,1.12,0.77,2.01,1.43,2.68
							c0.17,0.17,0.33,0.34,0.53,0.48l0.29,0.22c0.1,0.07,0.22,0.12,0.33,0.19l0.33,0.19c0.12,0.06,0.26,0.11,0.39,0.17
							c0.27,0.11,0.53,0.25,0.8,0.31c2.16,0.74,4.2,0.46,6.02-0.81c0.91-0.63,1.74-1.5,2.46-2.5c0.73-1,1.34-2.14,1.92-3.39
							c0.57-1.24,1.07-2.56,1.65-3.99c0.57-1.41,1.24-2.97,2.26-4.46c0.24-0.38,0.54-0.73,0.81-1.09c0.31-0.34,0.6-0.7,0.94-1.01
							c0.33-0.32,0.67-0.63,1.03-0.91l0.51-0.41l0.4-0.3c1.06-0.82,2.07-1.73,3.02-2.71c1.9-1.96,3.6-4.17,4.81-6.5
							c1.22-2.29,1.88-4.87,1.02-6.11c-0.51-0.93-1.14-1.56-1.95-1.88c-0.41-0.16-0.88-0.26-1.38-0.27c-0.25-0.01-0.51,0-0.77,0.04
							c-0.13,0.01-0.25,0.04-0.38,0.06c-0.1,0.02-0.28,0.07-0.27,0.06c-1.17,0.42-2.47-0.19-2.89-1.36
							C348.99,347.28,349.6,345.98,350.77,345.56z"/>
					</g>
				</g>
			</g>
		</g>
		<g>
			<g>
				<g>
					<g>
						<path class="st3" d="M332.75,346.23c0.35-1.6,0.82-3.2,1.5-4.77c0.68-1.56,1.57-3.1,2.8-4.49c1.22-1.37,2.89-2.56,4.79-3.12
							c1.89-0.58,3.86-0.52,5.61-0.16l0.11,0.02l0.07,0.02c1.44,0.42,2.9,1.36,3.83,2.65c0.97,1.28,1.4,2.73,1.59,4.07
							c0.37,2.71-0.1,5.19-0.72,7.53c-0.66,2.33-1.5,4.58-2.69,6.64c-0.58,1.04-1.24,2.03-1.98,2.97c-0.74,0.94-1.56,1.82-2.52,2.54
							c-0.09,0.06-0.21,0.05-0.27-0.04c-0.04-0.06-0.05-0.13-0.02-0.2l0,0c0.95-2.12,1.74-4.21,2.46-6.32
							c0.7-2.11,1.38-4.22,1.79-6.35c0.4-2.11,0.54-4.29,0.17-6.12c-0.19-0.91-0.53-1.7-1-2.22c-0.47-0.53-1.04-0.88-1.81-1.08
							l0.18,0.04c-1.25-0.19-2.43-0.13-3.46,0.22c-1.03,0.34-1.95,1-2.73,1.92c-0.8,0.91-1.45,2.05-1.99,3.29
							c-0.54,1.24-0.97,2.58-1.31,3.95l0,0.01c-0.3,1.21-1.53,1.94-2.74,1.64C333.22,348.6,332.49,347.41,332.75,346.23z"/>
					</g>
				</g>
			</g>
		</g>
		<g>
			<g>
				<g>
					<g>
						<path class="st13" d="M336.69,363.85"/>
					</g>
				</g>
			</g>
		</g>
		<g>
			<g>
				<g>
					<g>
						<path class="st8" d="M226.13,342.71L226.13,342.71c-2.4-0.31-5.01-0.8-7.82-1.51L226.13,342.71z"/>
					</g>
				</g>
			</g>
		</g>
		<g>
			<g>
				<g>
					<g>
						<path class="st8" d="M226.13,342.71L226.13,342.71c-2.4-0.31-5.01-0.8-7.82-1.51L226.13,342.71z"/>
					</g>
				</g>
			</g>
		</g>
		<g>
			<g>
				<g>
					<g>
						<ellipse class="st3" cx="241.96" cy="198.12" rx="14.55" ry="20.82"/>
					</g>
				</g>
			</g>
		</g>
		<g>
			<g>
				<g>
					<g>
						<ellipse class="st6" cx="244.75" cy="202.32" rx="3.88" ry="7.41"/>
					</g>
				</g>
			</g>
		</g>
		<g>
			<g>
				<g>
					<g>
						<ellipse class="st3" cx="327.76" cy="198.12" rx="14.55" ry="20.82"/>
					</g>
				</g>
			</g>
		</g>
		<g>
			<g>
				<g>
					<g>
						<path class="st3" d="M277.44,262.6h-34.73c-19.65,0-36.79-1.89-50.95-5.62c-12.26-3.23-22.08-7.81-29.2-13.61
							c-8.89-7.25-13.65-16.43-14.13-27.31c-0.53-11.7,2.8-32.71,8.9-56.22l0.66-2.49c6.74-26.89,4.76-37.15,3.59-43.28
							c-0.76-3.96-1.31-6.82,1.03-10.92c1.32-2.32,3.18-2.99,4.51-3.14c2.26-0.26,4.64,0.77,6.65,2.08
							c-0.64-7.98,1.12-13.48,5.05-15.45c3.17-1.59,6.96-0.44,10.12,3.05c8.13,8.98,19.62,16.42,25.93,20.16
							c5.91-1.03,32.91-5.71,36.86-5.8c0.16,0,0.5-0.03,1.02-0.07c20.69-1.64,36.54,0.83,46.2,3.2
							c27.43,6.71,45.66,21.65,54.19,44.41l0.04,0.12l1.48,4.71c7.63,24.6,11.5,44.2,11.19,56.71c0.03,0.54,0.04,1.11,0.04,1.76
							c0,6.3-1.48,12.68-4.41,18.97l-0.03,0.06c-5.79,11.54-22.65,18.37-35.77,22.07C310.9,260.12,292.87,262.6,277.44,262.6z
							 M167.86,104.48c-0.08,0-0.16,0-0.23,0.01c-0.21,0.02-0.65,0.08-1.11,0.89c-1.51,2.65-1.22,4.17-0.52,7.83
							c1.25,6.5,3.34,17.38-3.65,45.24l-0.66,2.53c-5.99,23.09-9.27,43.61-8.76,54.88c0.79,17.61,14.24,29.97,39.97,36.75
							c13.78,3.63,30.54,5.47,49.8,5.47h34.73c26.93,0,70.94-8.32,79.94-26.19c2.64-5.68,3.97-11.41,3.97-17.04
							c0-0.6-0.01-1.13-0.04-1.61l0-0.09l0-0.09c0.32-12.02-3.48-31.15-10.98-55.33l-1.46-4.64
							c-17.21-45.76-72.71-46.46-95.79-44.63c-0.65,0.05-1.08,0.08-1.28,0.09c-2.91,0.06-23.72,3.55-37,5.87l-0.89,0.16l-0.75-0.5
							c-0.02-0.01-0.15-0.09-0.33-0.19c-6.47-3.81-18.61-11.62-27.26-21.18c-1.7-1.88-3.52-2.66-4.75-2.04
							c-1.69,0.85-3.98,5.27-1.8,16.49l1.5,7.72l-5.36-5.75C173.34,107.2,169.85,104.48,167.86,104.48z M160.17,157.9L160.17,157.9
							L160.17,157.9z"/>
					</g>
				</g>
			</g>
		</g>
		<g>
			<g>
				<g>
					<g>
						<path class="st3" d="M375.72,161.34c-1.78-0.07-4.07-0.12-8.52-0.85c-12.41-2.04-30.68-7.12-51.95-0.06
							c-10.11,3.36-18.39,13.73-27.02,15.29c-17.74,3.19-17.87-19.08-58.57-19.07c-17.07,0.01-29.85,3.28-40.15,5.05
							c-8.91,1.54-9.4,0.41-14.85,0.65c-6.07,0.26-10.45,3.37-9.99,10.03c0.52,7.58,9.69,8.41,14.14,18.56
							c4.45,10.15,6.71,43.83,47.75,47.4c0,0,23.74,2.75,39.44-19.6c9.82-13.97,14.55-26.79,22.16-27.29
							c7.07-0.46,9.85,7.41,17.12,19.79c19,32.37,56.08,16.4,64.65,2.84c8.58-13.56,1.37-31.4,8.33-38.4
							C385.51,168.38,381.19,161.56,375.72,161.34z M270.49,194.28c-0.06,0.56-0.14,1.15-0.22,1.74
							c-2.9,20.44-19.39,34.12-36.61,36.16c-12.79,1.51-38.36-3.57-46.1-31.07c-2.79-9.9-2.95-20.11-0.17-25.58
							c4.85-9.54,19.2-12.4,25.56-13.5c0.66-0.11,1.37-0.22,2.13-0.3c13.1-1.52,38.47,1.35,47.14,8.99
							C262.21,170.72,272.53,175.43,270.49,194.28z M369.75,205.92c-1.04,4.79-8.39,18.32-28.28,20.21
							c-25.2,2.39-42.67-31.32-39.55-46.02c3.01-14.14,22.62-16.66,27.7-17.51c15.63-2.61,38.9,1.02,40.39,7.3
							C372.25,179.32,371.71,196.9,369.75,205.92z"/>
					</g>
				</g>
			</g>
		</g>
		<g class="st5">
			<g>
				<g>
					<g>
						<path class="st8" d="M308.83,215.24c0.1,4.01-2.03,9.93-20.79,10.72c-3.97,0.17-10.36-0.74-12.33-1.65
							c-5.32-2.46-8.06-5.01-7.6-9.11c0.25-2.22,2.37-4.83,4.22-5.76c4.65-2.35,4.08-2.35,5.79-4.73c3.4-4.74,5.88-5.52,8.77-6.18
							C296.79,196.25,308.7,209.74,308.83,215.24z"/>
					</g>
				</g>
			</g>
		</g>
		<g>
			<g>
				<g>
					<g>
						<path class="st12" d="M306.54,210.74c0.08,3.5-1.8,8.68-18.31,9.38c-3.5,0.15-9.12-0.64-10.85-1.43
							c-4.68-2.14-7.09-4.37-6.68-7.95c0.22-1.94,2.09-4.22,3.72-5.04c4.1-2.06,3.59-2.06,5.1-4.13c3-4.14,5.18-4.83,7.73-5.41
							C295.96,194.16,306.43,205.93,306.54,210.74z"/>
					</g>
				</g>
			</g>
		</g>
		<g class="st5">
			<g>
				<g>
					<g>
						<path class="st8" d="M288.24,220.12c-3.5,0.17-9.12-0.73-10.86-1.62c-4.68-2.43-7.09-4.97-6.68-9.05
							c0.06-0.62,0.26-1.28,0.54-1.91c0.95,2.11,3.05,3.76,6.14,5.37c1.73,0.9,7.36,1.79,10.86,1.63c12.39-0.6,16.53-4.07,17.8-7.44
							c0.32,0.88,0.49,1.68,0.5,2.36C306.63,213.43,304.75,219.33,288.24,220.12z"/>
					</g>
				</g>
			</g>
		</g>
		<g class="st14">
			<g>
				<g>
					<g>
						<path class="st6" d="M304.38,215.86v-0.2c-0.11-4.81-10.95-17.78-19.3-14.59c-1.84,0.7-2.85,2.91-4.09,4.82
							c-1.39,2.15-6.8,2.61-8.22,5.3c-0.28,0.52-1.6,0.11-2.12,0.63c-0.02-0.35-0.01-0.71,0.04-1.08c0.23-1.94,2.09-4.22,3.71-5.04
							c4.1-2.06,3.6-2.06,5.1-4.13c3-4.14,5.18-4.83,7.73-5.41c8.71-2,19.18,9.77,19.3,14.58
							C306.58,212.29,306.23,214.18,304.38,215.86z"/>
					</g>
				</g>
			</g>
		</g>
		<g>
			<g>
				<g>
					<g>
						<path class="st3" d="M287.39,222.4c-3.52,0-8.84-0.69-10.95-1.65c-4.05-1.85-8.62-4.7-7.98-10.26
							c0.33-2.86,2.77-5.71,4.95-6.8c2.93-1.47,3-1.58,3.66-2.55c0.17-0.25,0.37-0.55,0.62-0.89c3.38-4.67,6.1-5.61,9.05-6.29
							c4.1-0.94,8.87,0.5,13.46,4.07c4.2,3.27,8.51,8.67,8.6,12.66v0c0.17,7.27-6.52,11.1-20.47,11.69
							C288.04,222.39,287.72,222.4,287.39,222.4z M289.3,198.19c-0.52,0-1.04,0.05-1.55,0.17c-2.01,0.46-3.74,0.86-6.4,4.53
							c-0.22,0.3-0.39,0.56-0.54,0.78c-1.16,1.71-1.71,2.2-5.37,4.05c-1.09,0.55-2.37,2.23-2.49,3.28
							c-0.18,1.53,0.09,3.22,5.38,5.64c1.24,0.57,6.46,1.37,9.82,1.23c10.81-0.46,16.24-2.84,16.14-7.07v0
							c-0.04-1.65-2.67-5.94-6.86-9.2C295.68,200.24,292.51,198.19,289.3,198.19z"/>
					</g>
				</g>
			</g>
		</g>
		<g>
			<g>
				<g>
					<g>
						<g>
							<polygon class="st6" points="269.15,268.11 185.33,268.11 186.16,244.95 269.15,244.12 266.25,259.72 							"/>
						</g>
					</g>
				</g>
			</g>
			<g>
				<g>
					<g>
						<g>
							<polygon class="st15" points="273.36,267.81 273.36,341.29 178.9,341.29 178.9,260.21 183.12,272.25 188.11,272.01 
								273.31,267.81 							"/>
						</g>
					</g>
				</g>
			</g>
			<g>
				<g>
					<g>
						<g>
							<path class="st15" d="M273.36,266.94v6.97h-79.4c-8.28,0-15.05-6.77-15.05-15.05v-4.3c0-6.95,5.63-12.58,12.58-12.58h79.18
								c1.45,0,2.72,1.19,2.69,2.64c-0.02,0.69-0.3,1.31-0.75,1.76c-0.47,0.47-1.12,0.76-1.83,0.76h-75.81
								c-3.95,0-7.19,3.23-7.19,7.19v2.71c0,3.96,3.24,7.19,7.19,7.19h75.68C272.14,264.23,273.36,265.44,273.36,266.94z"/>
						</g>
					</g>
				</g>
			</g>
			<g>
				<g>
					<g>
						<g>
							<path class="st3" d="M221.27,274.46c-7.3,0.8-14.6,1.03-21.9,1.14c-1.83,0.03-3.64,0.06-5.48,0.06
								c-2.04,0.01-4.08-0.39-5.98-1.13c-3.81-1.47-7.01-4.38-8.85-8.01c-0.92-1.81-1.53-3.79-1.73-5.81
								c-0.05-0.5-0.06-1.01-0.09-1.52c-0.03-0.52,0-0.93-0.01-1.4l0.01-2.74c-0.01-0.43,0.03-0.97,0.05-1.48
								c0.01-0.52,0.12-1.02,0.19-1.53c0.07-0.51,0.24-1,0.36-1.51c0.14-0.5,0.34-0.97,0.51-1.46c0.8-1.9,2.03-3.62,3.55-5.01
								c1.52-1.39,3.34-2.45,5.31-3.07c0.5-0.13,1-0.27,1.5-0.38c0.51-0.07,1.02-0.18,1.53-0.21c0.5-0.02,1.06-0.07,1.51-0.06h1.37
								h10.95h43.79h21.9h0.68c0.16,0,0.64,0,0.97,0.07c0.72,0.13,1.4,0.45,1.97,0.89c0.56,0.46,1.03,1.05,1.31,1.76
								c0.28,0.7,0.36,1.51,0.22,2.23c-0.25,1.48-1.35,2.77-2.77,3.25c-0.35,0.12-0.72,0.2-1.09,0.22
								c-0.09,0.01-0.19,0.01-0.28,0.01l-0.18,0h-0.34h-1.37h-10.95h-43.79h-10.95h-5.47H195c-0.72,0-1.41,0.13-2.07,0.39
								c-1.31,0.52-2.41,1.56-3,2.84c-0.3,0.64-0.47,1.33-0.5,2.03l-0.02,0.26l0,0.34v0.68v1.37v0.34l0.02,0.26
								c0.01,0.18,0.01,0.35,0.05,0.52c0.04,0.35,0.13,0.69,0.25,1.02c0.23,0.66,0.59,1.28,1.05,1.82c0.92,1.07,2.26,1.77,3.66,1.9
								l43.64,0.03h21.9l11.11,0c1.47,0.14,2.84,1.07,3.49,2.4c0.17,0.33,0.28,0.68,0.37,1.04c0.03,0.18,0.07,0.36,0.08,0.55
								c0.01,0.18,0.02,0.39,0.02,0.47l0.02,1.37c0.03,1.82,0.04,3.65,0.04,5.47l0,1.74l-1.75,0.01c-1.79,0.01-3.57,0-5.36-0.03
								c-1.79-0.04-3.57-0.08-5.36-0.17c-1.79-0.08-3.57-0.2-5.36-0.35c-1.79-0.17-3.57-0.35-5.36-0.65
								c-0.3-0.05-0.51-0.34-0.46-0.64c0.04-0.24,0.23-0.42,0.46-0.46c1.79-0.3,3.57-0.48,5.36-0.65c1.79-0.15,3.57-0.27,5.36-0.35
								c1.79-0.08,3.57-0.13,5.36-0.17c1.79-0.03,3.57-0.05,5.36-0.03l-1.75,1.75c0-1.82,0.01-3.65,0.04-5.47l0.02-1.37l0-0.21
								c0-0.04-0.01-0.09-0.01-0.13c-0.02-0.08-0.04-0.17-0.08-0.24c-0.14-0.32-0.47-0.55-0.82-0.59c-0.06,0-0.05-0.01-0.17-0.01
								l-0.34,0l-0.68,0l-1.37-0.01l-2.74,0h-5.47h-21.9h-21.9h-10.95h-5.47h-2.74h-1.37h-0.68l-0.84-0.04
								c-2.24-0.21-4.37-1.32-5.82-3.02c-0.73-0.84-1.31-1.83-1.67-2.89c-0.18-0.53-0.32-1.08-0.4-1.63
								c-0.05-0.28-0.07-0.56-0.08-0.84l-0.02-0.42v-0.34v-1.37v-0.68l0-0.35l0.02-0.42c0.06-1.12,0.33-2.23,0.8-3.25
								c0.94-2.04,2.67-3.68,4.76-4.5c1.04-0.42,2.17-0.63,3.28-0.63h2.74h5.47h10.95h43.79h10.95h1.37h0.34l0.17,0
								c0.02,0,0.04,0,0.06,0c0.08-0.01,0.16-0.02,0.24-0.05c0.32-0.11,0.57-0.4,0.62-0.72c0.06-0.33-0.06-0.61-0.35-0.86
								c-0.15-0.11-0.32-0.2-0.5-0.23c-0.05-0.03-0.64-0.02-1.08-0.02h-21.9h-43.79h-10.95h-1.37c-0.47,0-0.81,0.04-1.23,0.05
								c-0.4,0.02-0.78,0.11-1.18,0.16c-0.39,0.09-0.77,0.19-1.15,0.29c-1.51,0.48-2.91,1.3-4.09,2.37
								c-1.17,1.07-2.12,2.39-2.73,3.85c-0.13,0.38-0.29,0.74-0.39,1.12c-0.08,0.39-0.22,0.76-0.26,1.16
								c-0.05,0.39-0.14,0.78-0.14,1.18c-0.02,0.4-0.05,0.77-0.04,1.25l0.01,2.74c0.01,0.44-0.01,0.95,0.02,1.34
								c0.03,0.4,0.03,0.81,0.08,1.21c0.17,1.61,0.69,3.18,1.44,4.6c1.51,2.86,4.07,5.15,7.08,6.31c1.5,0.58,3.1,0.89,4.72,0.92
								l5.47,0.07c7.3,0.11,14.6,0.33,21.9,1.14c0.3,0.03,0.52,0.31,0.49,0.61C221.72,274.23,221.52,274.43,221.27,274.46z"/>
						</g>
					</g>
				</g>
			</g>
			<g>
				<g>
					<g>
						<g>
							<path class="st3" d="M275.62,343.55h-98.97v-84.31c0-1.25,1.01-2.26,2.26-2.26s2.26,1.01,2.26,2.26v79.79h89.93v-70.9
								c-0.01-0.1-0.02-0.21-0.02-0.32c0-1.25,0.99-2.26,2.24-2.26h2.26l0.04,2.74V343.55z"/>
						</g>
					</g>
				</g>
			</g>
			<g>
				<g>
					<g>
						<g>
							<path class="st3" d="M268.42,265.87c-0.73,0-1.4-0.49-1.59-1.23c-1.5-5.86-1.5-12.05,0-17.91c0.22-0.88,1.11-1.41,1.99-1.18
								c0.88,0.22,1.41,1.12,1.18,1.99c-1.36,5.33-1.36,10.96,0,16.28c0.22,0.88-0.3,1.77-1.18,1.99
								C268.69,265.85,268.56,265.87,268.42,265.87z"/>
						</g>
					</g>
				</g>
			</g>
		</g>
		<g class="st5">
			<g>
				<g>
					<g>
						<path class="st3" d="M284.49,320.46c0,0-3.73,2.77-11.78,4.63c-2.82,0.65-6.16,1.2-10.06,1.47
							c-3.18-16.27-23.95-28.84-49.09-28.84c-13.82,0-26.32,3.8-35.3,9.92v-46.4l4.22,12.04l4.98-0.24
							c1.25,1.09,2.68,2.17,4.28,3.25c4.8,3.22,10.85,3.93,16.31,2.05c9.48-3.28,25.19-7.97,30.99-5.33
							c6.12,2.78,21.65,12.67,33.66,27.59C277.45,306.48,281.64,313.15,284.49,320.46z"/>
					</g>
				</g>
			</g>
		</g>
		<g>
			<g>
				<g>
					<g>
						<g>
							<path class="st4" d="M237.44,278.75c-5.8-2.63-21.5,2.06-30.99,5.33c-5.46,1.89-11.51,1.17-16.32-2.05
								c-19.92-13.34-11.49-28.38-11.3-28.71c-0.6,0.54-33.19,30.05-28.42,75.58c0.85,8.12,5.7,19.5,14.19,26.96
								c0,0-2.63-15.41-1.85-22.88c2.06,9.02,8.33,21.18,26.5,27.79c0,0,3.04-13.64,3.81-18.12l1.15,0.12
								c5.26,6.14,15.55,14.27,33.89,16.01c0,0-2.13-14.54-1.98-16.05c-0.64-0.08-1.29-0.18-1.96-0.29l0.24-0.05l1.72,0.33l0,0
								c22.63,2.92,27.76-10.23,27.76-10.23c20.07,0.35,28.99-6.28,28.99-6.28C272.8,300.32,245.97,282.62,237.44,278.75z
								 M250,333.42l0.99-1.03c0.99,0.05,1.96,0.08,2.9,0.1L250,333.42z"/>
						</g>
					</g>
				</g>
			</g>
		</g>
		<g class="st5">
			<g>
				<g>
					<g>
						<path class="st3" d="M177.86,254.24c0.1,0.16,0.21,0.32,0.32,0.49c0.34-0.85,0.62-1.35,0.65-1.41
							C178.78,253.37,178.44,253.68,177.86,254.24z M274.32,310.59c-4.7,1.73-21.37,19.81-44,16.88
							c4.34,11.46-10.77,11.93-10.77,11.93c-18.35-1.74-35.09-13.31-35.09-13.31c-1.21,6.39,2.21,16.14,2.21,16.14
							c-18.17-6.61-21.41-12.94-23.47-21.96c-0.78,7.47-1.18,17.06-1.18,17.06c-5.7-5.01-9.76-11.78-12.07-18.15
							c-0.02,3.15,0.12,6.4,0.47,9.73c0.85,8.12,5.7,19.5,14.18,26.96c0,0-2.63-15.41-1.85-22.89c2.06,9.03,8.33,21.18,26.5,27.79
							c0,0,3.04-13.64,3.81-18.13l1.15,0.12c5.26,6.14,15.55,14.27,33.89,16c0,0-2.13-14.54-1.98-16.05
							c-0.64-0.08-1.29-0.17-1.96-0.29l0.24-0.05l1.72,0.33v0.01c22.63,2.92,27.76-10.23,27.76-10.23l-3.89,0.93l0.99-1.03
							c0.99,0.05,1.96,0.08,2.9,0.1c20.07,0.36,28.99-6.28,28.99-6.28C280.7,320.6,277.73,315.37,274.32,310.59z"/>
					</g>
				</g>
			</g>
		</g>
		<g class="st5">
			<g>
				<g>
					<g>
						<path class="st6" d="M237.44,277.44c-5.8-2.62-21.51,2.06-30.99,5.33c-5.46,1.89-11.51,1.17-16.31-2.05
							c-19.92-13.34-11.49-28.37-11.3-28.71c-0.29,0.27-8.18,7.4-15.64,19.92c5.84-8.22,10.92-12.82,11.15-13.03
							c-0.19,0.33-8.62,15.37,11.3,28.71c4.8,3.22,10.86,3.94,16.31,2.05c9.49-3.27,25.19-7.96,30.99-5.33
							c8.1,3.68,32.66,19.8,43.77,43.55c4.19-1.52,6.16-2.99,6.16-2.99C272.8,299.01,245.97,281.31,237.44,277.44z"/>
					</g>
				</g>
			</g>
		</g>
		<g>
			<g>
				<g>
					<g>
						<path class="st3" d="M231.28,329.18c2.21,0.2,4.4,0.44,6.58,0.71l6.55,0.5l3.27,0.12l1.63,0.08c0.54,0.02,1.09,0,1.63,0
							l3.25-0.02c1.08-0.01,2.16-0.09,3.23-0.13c4.3-0.25,8.57-0.74,12.7-1.69c1.02-0.28,2.05-0.52,3.06-0.81
							c0.99-0.33,2.02-0.6,2.98-1c0.99-0.35,1.93-0.77,2.86-1.2c0.44-0.24,0.92-0.45,1.34-0.7c0.41-0.23,0.9-0.53,1.15-0.71
							l-0.78,2.7c-1.99-4.87-4.55-9.51-7.55-13.88l-2.33-3.23l-2.51-3.1l-0.63-0.77l-0.67-0.74l-1.33-1.48
							c-0.45-0.49-0.88-1-1.34-1.48l-1.41-1.42c-3.74-3.8-7.76-7.34-12.01-10.58c-1.08-0.79-2.13-1.61-3.23-2.37
							c-1.1-0.74-2.18-1.54-3.3-2.25l-1.67-1.08c-0.56-0.35-1.13-0.68-1.7-1.02c-0.57-0.34-1.13-0.68-1.71-0.98
							c-0.57-0.3-1.15-0.65-1.72-0.92l-0.85-0.42l-0.43-0.21l-0.31-0.09c-0.36-0.17-0.92-0.23-1.42-0.33
							c-1.11-0.11-2.32-0.13-3.58-0.03c-2.51,0.18-5.11,0.65-7.69,1.22c-5.17,1.16-10.33,2.75-15.42,4.5
							c-2.88,1-6.04,1.45-9.12,1.22c-3.09-0.23-6.14-1.11-8.88-2.57l-1.01-0.58c-0.33-0.2-0.65-0.42-0.98-0.63
							c-0.62-0.43-1.17-0.87-1.76-1.31l-0.87-0.66l-0.43-0.33l-0.41-0.36l-1.64-1.46c-2.11-2.05-4.08-4.32-5.6-6.98
							c-1.49-2.65-2.58-5.64-2.9-8.75c-0.33-3.11-0.01-6.26,0.98-9.23l0.2-0.56l0.1-0.28c0.04-0.1-0.07,0.18-0.09,0.27
							c-0.03,0.12-0.06,0.3-0.06,0.45c-0.02,0.32,0.04,0.66,0.16,0.96c0.24,0.61,0.67,1.04,1.19,1.28c0.5,0.25,1.2,0.32,1.82,0.09
							c0.31-0.11,0.57-0.28,0.77-0.46c0.15-0.14,0.05-0.05,0.06-0.05l-0.04,0.04l-0.17,0.17c-0.46,0.46-0.92,0.93-1.37,1.42
							c-0.9,0.96-1.79,1.95-2.64,2.95c-1.72,2.01-3.36,4.11-4.92,6.26c-6.22,8.62-11.09,18.22-14.15,28.37
							c-1.5,5.08-2.55,10.28-3.14,15.54c-0.56,5.26-0.62,10.57-0.19,15.85c0.06,0.65,0.09,1.35,0.17,1.96
							c0.07,0.62,0.15,1.24,0.28,1.86c0.21,1.24,0.53,2.48,0.88,3.72c0.72,2.46,1.69,4.87,2.84,7.19c2.31,4.62,5.39,8.89,9.19,12.27
							l-3.99,2.23c-0.32-1.95-0.59-3.85-0.83-5.78c-0.24-1.93-0.46-3.86-0.63-5.8c-0.18-1.94-0.32-3.89-0.38-5.87
							c-0.06-1.98-0.09-3.97,0.14-6.08c0.13-1.24,1.25-2.14,2.49-2.01c1.23,0.13,2.12,1.23,2.01,2.45l0,0.03
							c-0.16,1.71-0.12,3.57-0.03,5.42c0.09,1.85,0.25,3.73,0.45,5.6c0.2,1.87,0.44,3.75,0.7,5.63c0.27,1.87,0.55,3.76,0.86,5.6
							l1.15,6.73l-5.14-4.51c-4.39-3.84-7.84-8.57-10.45-13.67c-1.3-2.56-2.4-5.22-3.23-7.99c-0.41-1.39-0.78-2.79-1.04-4.23
							c-0.15-0.72-0.25-1.45-0.35-2.18c-0.11-0.74-0.14-1.41-0.21-2.12c-0.51-5.59-0.49-11.24,0.06-16.84
							c0.56-5.6,1.71-11.13,3.29-16.52c3.24-10.76,8.36-20.9,14.9-29.98c1.64-2.27,3.36-4.48,5.18-6.61
							c0.91-1.07,1.84-2.12,2.81-3.15c0.48-0.52,0.97-1.02,1.47-1.53l0.19-0.19l0.05-0.05l0.15-0.14c0.26-0.23,0.6-0.45,0.98-0.59
							c0.78-0.29,1.66-0.21,2.32,0.11c0.67,0.32,1.23,0.88,1.53,1.65c0.15,0.38,0.22,0.81,0.2,1.21c-0.01,0.19-0.04,0.41-0.08,0.57
							c-0.02,0.13-0.14,0.45-0.12,0.39l-0.07,0.2l-0.15,0.41c-0.73,2.21-0.97,4.6-0.72,6.92c0.24,2.33,1.06,4.58,2.23,6.68
							c1.2,2.09,2.83,3.98,4.63,5.72l1.41,1.26l0.35,0.32l0.38,0.29l0.77,0.58c0.51,0.38,1.03,0.79,1.52,1.14l0.74,0.48l0.76,0.44
							c2.07,1.11,4.37,1.79,6.72,1.98c2.36,0.18,4.72-0.13,6.99-0.91c5.24-1.77,10.53-3.38,16.02-4.58c2.75-0.59,5.53-1.09,8.47-1.3
							c1.46-0.11,2.99-0.1,4.59,0.08c0.83,0.15,1.64,0.25,2.55,0.62l0.66,0.24l0.49,0.24l0.98,0.48c0.67,0.32,1.26,0.68,1.89,1.02
							c0.63,0.34,1.24,0.7,1.83,1.07c0.6,0.37,1.21,0.72,1.8,1.1l1.76,1.15c2.34,1.54,4.58,3.19,6.79,4.89
							c4.4,3.42,8.56,7.14,12.44,11.16l1.46,1.5c0.48,0.51,0.93,1.04,1.4,1.56l1.39,1.57l0.69,0.79l0.66,0.82l2.61,3.29l2.43,3.43
							c3.13,4.66,5.82,9.64,7.92,14.9l0.67,1.68l-1.45,1.01c-0.65,0.45-1.12,0.71-1.67,1.02c-0.53,0.3-1.07,0.54-1.6,0.82
							c-1.08,0.49-2.16,0.95-3.25,1.34c-1.09,0.43-2.2,0.72-3.31,1.08c-1.11,0.31-2.23,0.56-3.35,0.84
							c-4.49,0.97-9.06,1.31-13.58,1.29c-1.13-0.02-2.26,0-3.39-0.06l-3.37-0.27c-0.56-0.05-1.12-0.08-1.68-0.15l-1.67-0.23
							l-3.33-0.5c-2.2-0.39-4.38-0.91-6.56-1.39c-2.15-0.61-4.29-1.23-6.41-1.9c-0.21-0.07-0.33-0.29-0.26-0.5
							c0.06-0.18,0.23-0.29,0.41-0.28L231.28,329.18z"/>
					</g>
				</g>
			</g>
		</g>
		<g>
			<g>
				<g>
					<g>
						<path class="st3" d="M255.66,334.02c-0.9,1.76-2.06,3.22-3.4,4.5c-0.65,0.67-1.39,1.2-2.11,1.78
							c-0.37,0.27-0.76,0.5-1.14,0.75c-0.39,0.24-0.76,0.5-1.17,0.7c-1.59,0.86-3.27,1.55-4.98,2.02l-1.28,0.34
							c-0.21,0.05-0.43,0.12-0.64,0.16l-0.65,0.11c-0.87,0.13-1.73,0.3-2.6,0.38l-2.59,0.16c-0.86,0.07-1.72-0.02-2.58-0.04
							c-1.72,0-3.4-0.29-5.08-0.48c-0.42-0.04-0.84-0.11-1.25-0.2l-1.24-0.27c-0.82-0.19-1.64-0.4-2.44-0.63
							c-1.59-0.57-3.15-1.21-4.64-2.03c-0.09-0.05-0.13-0.17-0.07-0.26c0.03-0.06,0.09-0.09,0.16-0.1l0.01,0
							c1.72-0.12,3.35-0.02,4.97,0.1c0.81,0.02,1.62,0.05,2.42,0.11l1.2,0.1l0.6,0.06l0.6,0.02c1.59,0.02,3.18,0.15,4.75,0
							l1.18-0.07c0.39-0.02,0.78-0.03,1.17-0.09l2.3-0.31c1.5-0.32,3-0.63,4.42-1.14c0.73-0.2,1.4-0.54,2.08-0.83
							c0.7-0.26,1.32-0.67,1.97-1.01c0.33-0.16,0.62-0.39,0.92-0.59c0.3-0.21,0.61-0.41,0.9-0.62c0.55-0.47,1.14-0.89,1.63-1.41
							c1.03-0.98,1.93-2.13,2.58-3.26l0.04-0.08c0.61-1.08,1.99-1.47,3.08-0.85C255.82,331.62,256.21,332.95,255.66,334.02z"/>
					</g>
				</g>
			</g>
		</g>
		<g>
			<g>
				<g>
					<g>
						<path class="st3" d="M162.71,321.69c0.51,4.17,1.34,8.25,2.59,12.08c0.62,1.92,1.36,3.79,2.2,5.61
							c0.83,1.82,1.81,3.59,2.96,5.23c1.15,1.65,2.45,3.2,3.92,4.59l0.54,0.53l0.57,0.5c0.38,0.33,0.76,0.67,1.15,0.99
							c0.81,0.61,1.58,1.27,2.44,1.82c3.35,2.32,7.06,4.16,10.95,5.58l-2.98,1.63l2-9.16l0.96-4.58c0.31-1.52,0.62-3.06,0.88-4.53
							l0-0.03c0.21-1.23,1.38-2.05,2.61-1.84c1.23,0.21,2.05,1.38,1.84,2.61v0c-0.28,1.62-0.59,3.14-0.91,4.69l-0.97,4.61l-2,9.2
							l-0.55,2.52l-2.43-0.88c-4.19-1.53-8.25-3.53-11.98-6.11c-0.95-0.61-1.82-1.35-2.73-2.04c-0.44-0.36-0.86-0.74-1.29-1.12
							l-0.64-0.56l-0.61-0.6c-1.66-1.57-3.14-3.32-4.51-5.15c-1.37-1.83-2.6-3.79-3.59-5.86c-0.98-2.08-1.73-4.26-2.23-6.49
							c-0.5-2.23-0.74-4.5-0.71-6.77c0.03-2.27,0.28-4.5,1.01-6.71c0.13-0.4,0.56-0.62,0.96-0.49c0.29,0.1,0.48,0.35,0.52,0.63
							L162.71,321.69z"/>
					</g>
				</g>
			</g>
		</g>
		<g>
			<g>
				<g>
					<g>
						<path class="st3" d="M190.21,335.36c1.2,1.45,2.5,2.88,3.78,4.24c0.68,0.66,1.28,1.36,1.99,1.97l1,0.97l1.04,0.92
							c2.78,2.43,5.67,4.74,8.86,6.68c1.66,0.85,3.27,1.79,5.04,2.43l1.3,0.53c0.43,0.17,0.86,0.37,1.31,0.49l2.69,0.83
							c0.45,0.13,0.89,0.3,1.35,0.4l1.38,0.3l2.76,0.61c1.86,0.32,3.75,0.52,5.62,0.79l-2.45,2.58l-1.07-7.63l-0.49-3.83
							c-0.15-1.29-0.31-2.55-0.41-3.94c-0.09-1.24,0.84-2.33,2.08-2.42c1.24-0.09,2.33,0.84,2.42,2.08v0l0,0.04
							c0.09,1.17,0.24,2.45,0.39,3.7l0.49,3.78l1.06,7.58l0.42,2.98l-2.86-0.4c-2-0.28-4.01-0.51-6.01-0.85l-2.98-0.65l-1.49-0.33
							c-0.5-0.11-0.98-0.29-1.46-0.43l-2.92-0.91c-0.49-0.13-0.96-0.35-1.43-0.53l-1.42-0.58c-1.92-0.7-3.71-1.73-5.56-2.61
							l-2.66-1.57l-0.67-0.39l-0.64-0.44l-1.26-0.9c-0.85-0.58-1.64-1.25-2.41-1.95l-1.15-1.04l-1.06-1.14
							c-0.35-0.38-0.7-0.76-1.03-1.15l-0.94-1.23c-0.63-0.82-1.17-1.71-1.7-2.59c-1.02-1.81-1.87-3.68-2.29-5.79
							c-0.08-0.41,0.19-0.82,0.6-0.9c0.28-0.06,0.56,0.05,0.74,0.26L190.21,335.36z"/>
					</g>
				</g>
			</g>
		</g>
		<g>
			<g>
				<g>
					<g>
						<path class="st8" d="M195.83,251.87c5.51-0.14,11.01-0.2,16.52-0.25l16.52-0.08l16.52,0.08l8.26,0.09l8.26,0.16l-8.26,0.16
							l-8.26,0.09l-16.52,0.08l-16.52-0.08C206.84,252.06,201.34,252,195.83,251.87z"/>
					</g>
				</g>
			</g>
		</g>
		<g>
			<g>
				<g>
					<g>
						<path class="st8" d="M195.83,259.24c5.51-0.14,11.01-0.2,16.52-0.25l16.52-0.08l16.52,0.08l8.26,0.09l8.26,0.16l-8.26,0.16
							l-8.26,0.09l-16.52,0.08l-16.52-0.08C206.84,259.44,201.34,259.38,195.83,259.24z"/>
					</g>
				</g>
			</g>
		</g>
		<g>
			<g>
				<g>
					<g>
						<path class="st8" d="M195.83,255.56c5.51-0.14,11.01-0.2,16.52-0.25l16.52-0.08l16.52,0.08l8.26,0.09l8.26,0.16l-8.26,0.16
							l-8.26,0.09l-16.52,0.08l-16.52-0.08C206.84,255.75,201.34,255.69,195.83,255.56z"/>
					</g>
				</g>
			</g>
		</g>
		<g>
			<g>
				<g>
					<g>
						<g>
							<path class="st12" d="M245.17,365.09c-4.17-5.34-10.96-22.43,1.89-26.15c9.71-2.81,13.28,15.99,12.02,23.38"/>
						</g>
					</g>
				</g>
			</g>
			<g>
				<g>
					<g>
						<g>
							<path class="st12" d="M258.32,350.6c0,0,5.75-8.66,12.92-3.25c5.37,4.06,1.72,14.56-3.48,22.81
								c-2.91,4.63-4.38,10.02-4.33,15.49c0.04,5.07-1.32,10.64-7.44,10.99c-7.1,0.41-10.25-4.24-11.79-8.74
								c-1.69-4.94-4.62-9.37-8.55-12.8c-5.41-4.72-11.65-12.02-9.06-19.02c4.17-11.25,13.31-3.5,13.31-3.5"/>
						</g>
					</g>
				</g>
			</g>
		</g>
		<g class="st5">
			<g>
				<g>
					<g>
						<g>
							<path class="st8" d="M264.22,375.3c-0.55,2.29-0.81,7.98-0.79,10.35c0.04,5.06-1.33,10.64-7.44,10.99
								c-7.1,0.41-10.25-4.24-11.79-8.74c-1.69-4.93-4.62-9.37-8.56-12.8c-4.65-4.06,7.37,9.69,18.58,9.46
								C260.74,384.43,262.72,378.65,264.22,375.3z"/>
						</g>
					</g>
				</g>
			</g>
		</g>
		<g>
			<g>
				<g>
					<g>
						<g>
							<path class="st13" d="M264.22,378.65c0.27-1.13,0.6-2.25,1.01-3.34C265.01,376.48,264.69,377.6,264.22,378.65z"/>
						</g>
					</g>
				</g>
			</g>
		</g>
		<g class="st5">
			<g>
				<g>
					<g>
						<g>
							<path class="st6" d="M259.22,361.27c-0.16-1.61-0.44-3.31-0.83-4.98c-0.45-1.93-1.06-3.82-1.83-5.5
								c-2-4.39-5.1-7.4-9.42-6.15c-4.54,1.32-6.63,4.29-7.25,7.84c-0.93-5.77,0.34-11.55,7.19-13.53
								c5.97-1.73,9.62,4.72,11.25,11.66c0.37,1.59,0.64,3.2,0.81,4.75C259.36,357.54,259.39,359.61,259.22,361.27z"/>
						</g>
					</g>
				</g>
			</g>
			<g>
				<g>
					<g>
						<g>
							<path class="st6" d="M239.91,352.59c0.32,1.9,0.86,3.78,1.54,5.54l-1.47,0.16c0,0-9.15-7.76-13.31,3.49
								c-0.09,0.25-0.17,0.49-0.24,0.74c-0.59-2.12-0.63-4.29,0.17-6.44c4.01-10.84,12.66-4.03,13.28-3.52
								C239.89,352.58,239.91,352.59,239.91,352.59z"/>
						</g>
					</g>
				</g>
			</g>
			<g>
				<g>
					<g>
						<g>
							<path class="st6" d="M273.59,356.49c-0.39-1.39-1.13-2.57-2.29-3.44c-5.65-4.27-10.42,0.21-12.18,2.3
								c0.24,2.2,0.27,4.26,0.1,5.93c-0.16-1.61-0.44-3.31-0.83-4.98c-0.45-1.93-1.06-3.82-1.83-5.5l1.76-0.19
								c0,0,5.75-8.66,12.92-3.25C273.76,349.26,274.29,352.62,273.59,356.49z"/>
						</g>
					</g>
				</g>
			</g>
		</g>
		<g>
			<g>
				<g>
					<g>
						<g>
							<path class="st13" d="M241.44,358.13l-1.47,0.16c-0.33-1.95-0.41-3.91-0.1-5.72c0.01-0.03,0.01-0.06,0.01-0.09
								c0.01,0.04,0.01,0.08,0.02,0.12C240.22,354.48,240.77,356.37,241.44,358.13z"/>
						</g>
					</g>
				</g>
			</g>
			<g>
				<g>
					<g>
						<g>
							<path class="st13" d="M259.22,361.27c-0.16-1.61-0.44-3.31-0.83-4.98c0,0,0.25-0.39,0.73-0.95
								C259.36,357.54,259.39,359.61,259.22,361.27z"/>
						</g>
					</g>
				</g>
			</g>
		</g>
		<g>
			<g>
				<g>
					<g>
						<g>
							<path class="st3" d="M244.88,365.32c-1.12-0.79-2.08-1.77-2.91-2.82c-0.85-1.05-1.57-2.18-2.21-3.37
								c-1.25-2.39-2.14-5.01-2.48-7.83c-0.16-1.41-0.18-2.87,0.05-4.36c0.22-1.48,0.69-2.99,1.46-4.38
								c0.77-1.39,1.87-2.63,3.13-3.58c1.26-0.95,2.66-1.63,4.06-2.07c1.43-0.49,3.28-0.76,5.01-0.33c1.74,0.42,3.23,1.39,4.36,2.49
								c2.27,2.23,3.47,4.86,4.35,7.46c0.43,1.31,0.76,2.63,0.99,3.96c0.24,1.33,0.4,2.66,0.43,4c0.02,1.34-0.06,2.69-0.31,4.02
								c-0.26,1.33-0.64,2.67-1.34,3.88c-0.11,0.19-0.36,0.26-0.55,0.15c-0.1-0.06-0.17-0.15-0.19-0.26l0-0.02
								c-0.58-2.56-1.16-4.9-1.72-7.27c-0.29-1.17-0.55-2.34-0.86-3.49c-0.33-1.14-0.68-2.27-1.08-3.36
								c-0.8-2.16-1.81-4.25-3.12-5.65c-0.65-0.69-1.36-1.17-2.08-1.39c-0.74-0.19-1.51-0.18-2.47,0.14
								c-2.07,0.59-3.62,1.84-4.44,3.53c-0.83,1.7-0.96,3.86-0.81,6.08c0.16,2.23,0.64,4.55,1.22,6.88c0.59,2.35,1.28,4.7,2.12,7.14
								l0,0.01c0.07,0.21-0.04,0.43-0.24,0.5C245.11,365.42,244.98,365.39,244.88,365.32z"/>
						</g>
					</g>
				</g>
			</g>
			<g>
				<g>
					<g>
						<g>
							<path class="st3" d="M255.15,398.92c-4.58,0-10.23-1.92-13.09-10.29c-1.57-4.59-4.3-8.68-7.9-11.82
								c-8.73-7.62-12.08-15.05-9.69-21.51c1.5-4.05,3.81-6.51,6.85-7.31c5.03-1.32,9.84,2.7,10.04,2.87
								c0.95,0.81,1.07,2.23,0.26,3.18c-0.81,0.95-2.23,1.07-3.18,0.26c-0.89-0.74-3.71-2.55-5.99-1.95
								c-1.53,0.41-2.79,1.92-3.75,4.51c-2.24,6.04,4.32,12.95,8.42,16.54c4.2,3.66,7.38,8.42,9.21,13.77
								c1.77,5.19,4.81,7.49,9.52,7.21c1.33-0.08,5.38-0.31,5.31-8.71c-0.05-5.99,1.57-11.77,4.68-16.71
								c4.7-7.46,7.96-16.84,4.02-19.81c-1.43-1.08-2.81-1.49-4.22-1.26c-3.1,0.52-5.43,3.93-5.46,3.96
								c-0.7,1.03-2.1,1.31-3.13,0.62c-1.03-0.69-1.32-2.09-0.63-3.12c0.14-0.21,3.4-5.05,8.44-5.91c2.67-0.45,5.27,0.25,7.72,2.11
								c6.66,5.03,2.86,16.64-2.93,25.82c-2.65,4.2-4.03,9.14-3.98,14.27c0.09,11.05-5.95,13.05-9.56,13.26
								C255.8,398.91,255.48,398.92,255.15,398.92z"/>
						</g>
					</g>
				</g>
			</g>
		</g>
		<g>
			<g>
				<g>
					<g>
						<ellipse class="st6" cx="325.17" cy="202.32" rx="3.88" ry="7.41"/>
					</g>
				</g>
			</g>
		</g>
	</g>
</g>
</svg>
