<?xml version="1.0" encoding="utf-8"?>
<!-- Generator: Adobe Illustrator 24.2.0, SVG Export Plug-In . SVG Version: 6.00 Build 0)  -->
<svg version="1.1" id="Layer_1" xmlns="http://www.w3.org/2000/svg" xmlns:xlink="http://www.w3.org/1999/xlink" x="0px" y="0px"
	 viewBox="0 0 1238.4 331.2" style="enable-background:new 0 0 1238.4 331.2;" xml:space="preserve">
<style type="text/css">
	.st0{fill:#093F7D;}
	.st1{fill:#A6CE3A;}
	.st2{fill:#019BDB;}
	.st3{fill:#0D3F7D;}
</style>
<g>
	<g>
		<path class="st0" d="M1040,2.6h95.9c0,26,0,52.1,0,78.2c0,26.1-0.2,52.2,0.1,78.2c0,0.1,0,0.3,0,0.4l-0.8,0.7
			c-16.8,14.9-32.9,30.8-49.5,46.1c-14.9,14.1-30,28-44.7,42.2c-1.1,0.9-2.2,2.3-3.8,2.3c-10.8,0.1-21.6,0-32.3,0
			c-20.9,0-41.7,0-62.6,0c32.6-30.5,65-61.1,97.6-91.6c32,0.1,64,0,96,0c-27.8-32.8-55.7-65.4-83.5-98.1c-4.1,0-8.3,0-12.4,0
			C1040,41.5,1040,22.1,1040,2.6z"/>
		<path class="st0" d="M84.4,61.8c23-4.2,46.7-6.1,69.8-2c10.7,2,21.5,5.7,29.9,12.8c8.8,7.3,13.8,18.3,15.3,29.5
			c2.1,15.5-0.2,31.2-3,46.4c-6,34.1-11.8,68.3-17.8,102.4c-18.5-0.1-37,0-55.4-0.1c6.4-37.1,12.9-74.2,19.4-111.4
			c1.2-7.5,1.6-15.9-2.8-22.5c-4.5-6.8-12.8-9.5-20.6-10.1c-12.4-0.8-24.8,1.4-36.5,5.2c-8.1,46.3-16.1,92.6-24.2,138.8
			c-18.5,0-36.9,0-55.4,0v-0.7c10.3-58.4,20.4-116.8,30.6-175.2C50.3,69.3,67.2,65,84.4,61.8z"/>
		<g>
			<path class="st0" d="M233.8,69.2c20.5-6.4,41.9-10.9,63.4-11.7c16.4-0.1,33,1.3,48.6,6.6c9.3,3.3,18.5,8.1,24.8,16
				c6.2,7.7,8.8,17.7,9.3,27.4c0.6,10.8-1.2,21.5-3.1,32.1c-6.1,35.5-12.4,70.9-18.5,106.4c-22.9,5.7-46.5,9.1-70.1,9.1
				c-19.2-0.4-39-3.8-55.6-13.9c-11.5-6.9-20.6-18.2-23.5-31.5c-3.5-15.8-1.3-33.5,8.6-46.7c10.4-13.9,27.1-21.2,43.6-25
				c20.2-4.9,41.2-3.9,61.8-4c0.9-7.1,3.3-15.4-1.8-21.5c-6.1-7.1-16.3-8-25.1-8.6c-23.5-1.7-46.8,3.1-69.3,9.1
				C229.1,98.4,231.6,83.8,233.8,69.2z M268.9,175.4c-10.3,10.1-8.3,29.6,4.2,37c10.7,6.4,24,4.6,35.5,2.1c3-16.2,5.8-32.3,8.9-48.5
				c-7.8,0-15.5-0.1-23.3,0.1C285.2,166.7,275.5,168.8,268.9,175.4z"/>
		</g>
		<g>
			<path class="st0" d="M413.6,74.3c24.8-10.4,51.5-17,78.5-16.8c18.8,0.3,38.2,3.6,54.3,13.8c13.2,8.1,23.1,21.1,28.2,35.7
				c6.5,18.4,6.3,38.5,3.9,57.6c-2.7,20-9.2,40.1-22.1,56c-10.7,13.4-25.8,22.9-42.2,27.8c-24.4,7.2-50.8,6.5-75.1-0.9
				c-4.9,27-9.6,54.1-14.5,81.1H369C383.9,243.9,398.7,159.1,413.6,74.3z M462.5,112.8c-5.3,30-10.5,59.9-15.9,89.9
				c9.9,4.1,20.7,6.1,31.4,5.5c10-0.5,20.2-3.9,27.5-11c10.2-9.5,14.7-23.4,17.3-36.7c2-11.5,4-23.7-0.3-34.9
				c-2.9-7.8-9.6-13.8-17.4-16.3C491.2,104.6,475.7,106.7,462.5,112.8z"/>
		</g>
		<g>
			<path class="st0" d="M615.5,69c21-6.3,42.6-11,64.6-11.6c19.5,0.2,39.7,2,57.4,10.9c10,5,18.3,13.6,21.5,24.4
				c5.7,18,1.1,36.8-1.9,54.8c-5.7,32.8-11.4,65.6-17.2,98.5c-23.5,5.7-47.5,9.2-71.7,9c-19.1-0.6-38.7-4.2-55.1-14.6
				c-11.3-7.1-20-18.6-22.6-31.7c-3.3-16.6-0.5-35.1,10.7-48.2c11.5-13.4,28.9-20.1,45.8-23.4c18.9-4,38.4-2.9,57.6-3.1
				c0.7-6.4,2.9-13.4-0.4-19.5c-3.3-6.1-10.5-8.5-17-9.6c-26.5-3.9-53.2,1.3-78.8,8.1C610.8,98.4,613.2,83.7,615.5,69z M651.2,174.7
				c-10.4,9.5-9.4,28.4,2,36.7c8.5,6.3,19.8,5.7,29.7,4.6c2.4-0.5,5.2-0.5,7.3-1.8c3-16.1,5.9-32.1,8.8-48.2c-6.7,0-13.4,0-20.1,0
				C669.2,166.2,658.7,168,651.2,174.7z"/>
		</g>
		<path class="st0" d="M806.4,71.8c16.8-11.3,37.7-14.8,57.7-14.2c20.3,0.5,41.3,5.5,57.7,18.1c-2.9,15.6-5.7,31.2-8.8,46.8
			c-14.1-12.8-32.6-21.1-51.8-21.3c-6.8-0.1-14.1,0.4-19.7,4.7c-6.1,4.6-6.2,15-0.1,19.7c6.4,5.1,14.9,6.1,22.4,8.8
			c14.8,4.9,30.2,11,40.9,22.8c8.3,8.9,11.6,21.5,11.3,33.5c0.3,16.7-5.9,33.9-18.5,45.3c-13.3,12.2-31.5,17.4-49.2,18.8
			c-19.2,1.4-38.7-0.6-56.9-7.1c-9.2-3.4-18-8.1-25.5-14.4c2.8-15.8,5.6-31.5,8.4-47.3c15.6,12.4,33.7,23,53.9,25.2
			c8.6,0.8,18.1,1.2,25.8-3.6c7-4.2,8.9-15.4,2.8-21.2c-4.3-3.9-10.2-5.5-15.6-7.3c-9.9-2.7-20-5.4-29.3-9.9
			c-10.3-4.8-20-12.3-25.1-22.7c-5.9-12.2-6.2-26.5-3.6-39.7C785.8,92.5,794.4,79.7,806.4,71.8z"/>
	</g>
	<g>
		<path class="st1" d="M955.7,61c28.1-0.2,56.2-0.1,84.3,0c4.1,0,8.2,0,12.4,0c27.8,32.7,55.7,65.4,83.5,98.1c-32,0-64,0-96,0
			C1011.9,126.3,983.6,93.9,955.7,61z"/>
		<path class="st1" d="M1135.1,160.1l0.8-0.7c26.3,30,51.6,60.8,77.8,90.9c-4.5,0.7-9.1,0.3-13.6,0.4c-27.4,0-54.8,0.1-82.2-0.1
			c-4.5-3.9-7.8-9.2-12-13.5C1115.6,211.5,1125.9,186,1135.1,160.1z"/>
	</g>
	<g>
		<path class="st2" d="M1135.8,80.8c27.8,0,55.5-0.1,83.3,0.1c-27.7,26.1-55.4,52.2-83.2,78.2
			C1135.7,132.9,1135.8,106.8,1135.8,80.8z"/>
		<path class="st2" d="M1085.7,206.2c16.6-15.2,32.6-31.1,49.5-46.1c-9.2,25.8-19.5,51.3-29.2,77c-5.9,15.8-12.2,31.4-17.9,47.2
			c-11,0.6-22,0.1-33,0.3c-21,0-42,0-63,0c4-11.4,8.6-22.6,12.8-33.9c10.8,0,21.5,0.1,32.3,0c1.6,0.1,2.6-1.4,3.8-2.3
			C1055.7,234.2,1070.8,220.4,1085.7,206.2z"/>
	</g>
	<path class="st3" d="M1215.5,106.1c3.6,0.3,8.8-1.5,11,1.2c1.4,1.8,1,4.7-1,6.3c2.2,1.9,0.7,5.1,2.1,7.4c-0.7,0-2-0.1-2.7-0.1
		c-0.3-1.8,0.5-4-0.6-5.5c-1.5-1.9-4.5-0.7-6.7-0.8c0,2.1,0,4.2,0,6.3l-2.1,0.1C1215.4,116.1,1215.5,111.1,1215.5,106.1z
		 M1217.6,108c0,1.6,0,3.2,0,4.8c2.3-0.3,6.8,0.8,7.2-2.3C1225,106.7,1220,108.3,1217.6,108z"/>
	<path class="st3" d="M1234.9,110.3c-0.8-4-3.6-7.2-7.1-9c-0.1,0-0.2-0.1-0.2-0.1c-0.3-0.1-0.5-0.3-0.8-0.4
		c-1.9-0.8-3.9-1.2-5.9-1.2c-0.3,0-0.6,0-0.9,0c-0.1,0-0.3,0-0.4,0c-1.8,0.2-3.5,0.7-5.1,1.6c-1.6,0.8-2.9,2-4,3.3
		c-0.2,0.2-0.3,0.4-0.5,0.6c0,0.1-0.1,0.1-0.1,0.2c-3.4,5.1-3.3,12.6,0.9,17.3c0.3,0.3,0.6,0.6,0.9,0.9c0.1,0.1,0.2,0.2,0.4,0.3
		c0.1,0.1,0.3,0.3,0.4,0.4c0.3,0.2,0.6,0.4,0.9,0.6c0,0,0.1,0.1,0.1,0.1c0.3,0.2,0.6,0.4,1,0.6c0.1,0.1,0.2,0.1,0.3,0.1
		c0.3,0.1,0.5,0.3,0.8,0.4c0.2,0.1,0.5,0.2,0.7,0.3c0.1,0,0.3,0.1,0.4,0.1c0.4,0.1,0.8,0.3,1.2,0.4c0,0,0,0,0,0
		c0.8,0.2,1.7,0.3,2.6,0.4c0.1,0,0.3,0,0.4,0c0.2,0,0.4,0,0.7,0c3.5,0,6.9-1.3,9.4-3.8c1.9-1.8,3.1-4.2,3.9-6.6
		C1235.4,115,1235.5,112.7,1234.9,110.3z M1210.3,110.6c0.9-3.5,3.6-6.4,6.9-7.7c6.4-2.8,14.3,1.7,15.4,8.5
		c1.7,6.9-4.6,14.1-11.6,13.6C1213.8,125.1,1208.2,117.4,1210.3,110.6z"/>
</g>
</svg>
